<?xml version="1.0" encoding="UTF-8" standalone="no"?>
<!DOCTYPE svg PUBLIC "-//W3C//DTD SVG 1.1//EN"
 "http://www.w3.org/Graphics/SVG/1.1/DTD/svg11.dtd">
<!-- Generated by graphviz version 2.40.1 (20161225.0304)
 -->
<!-- Title: G Pages: 1 -->
<svg width="301pt" height="221pt"
 viewBox="0.00 0.00 301.00 221.00" xmlns="http://www.w3.org/2000/svg" xmlns:xlink="http://www.w3.org/1999/xlink">
<g id="graph0" class="graph" transform="scale(1 1) rotate(0) translate(4 217)">
<title>G</title>
<polygon fill="#ffffff" stroke="transparent" points="-4,4 -4,-217 297,-217 297,4 -4,4"/>
<!-- 140296709364480 -->
<g id="node1" class="node">
<title>140296709364480</title>
<polygon fill="none" stroke="#000000" points="0,-166.5 0,-212.5 293,-212.5 293,-166.5 0,-166.5"/>
<text text-anchor="middle" x="81.5" y="-185.8" font-family="Times,serif" font-size="14.00" fill="#000000">dense_2_input: InputLayer</text>
<polyline fill="none" stroke="#000000" points="163,-166.5 163,-212.5 "/>
<text text-anchor="middle" x="190.5" y="-197.3" font-family="Times,serif" font-size="14.00" fill="#000000">input:</text>
<polyline fill="none" stroke="#000000" points="163,-189.5 218,-189.5 "/>
<text text-anchor="middle" x="190.5" y="-174.3" font-family="Times,serif" font-size="14.00" fill="#000000">output:</text>
<polyline fill="none" stroke="#000000" points="218,-166.5 218,-212.5 "/>
<text text-anchor="middle" x="255.5" y="-197.3" font-family="Times,serif" font-size="14.00" fill="#000000">[(?, 1000)]</text>
<polyline fill="none" stroke="#000000" points="218,-189.5 293,-189.5 "/>
<text text-anchor="middle" x="255.5" y="-174.3" font-family="Times,serif" font-size="14.00" fill="#000000">[(?, 1000)]</text>
</g>
<!-- 140296708871672 -->
<g id="node2" class="node">
<title>140296708871672</title>
<polygon fill="none" stroke="#000000" points="35,-83.5 35,-129.5 258,-129.5 258,-83.5 35,-83.5"/>
<text text-anchor="middle" x="86" y="-102.8" font-family="Times,serif" font-size="14.00" fill="#000000">dense_2: Dense</text>
<polyline fill="none" stroke="#000000" points="137,-83.5 137,-129.5 "/>
<text text-anchor="middle" x="164.5" y="-114.3" font-family="Times,serif" font-size="14.00" fill="#000000">input:</text>
<polyline fill="none" stroke="#000000" points="137,-106.5 192,-106.5 "/>
<text text-anchor="middle" x="164.5" y="-91.3" font-family="Times,serif" font-size="14.00" fill="#000000">output:</text>
<polyline fill="none" stroke="#000000" points="192,-83.5 192,-129.5 "/>
<text text-anchor="middle" x="225" y="-114.3" font-family="Times,serif" font-size="14.00" fill="#000000">(?, 1000)</text>
<polyline fill="none" stroke="#000000" points="192,-106.5 258,-106.5 "/>
<text text-anchor="middle" x="225" y="-91.3" font-family="Times,serif" font-size="14.00" fill="#000000">(?, 10)</text>
</g>
<!-- 140296709364480&#45;&gt;140296708871672 -->
<g id="edge1" class="edge">
<title>140296709364480&#45;&gt;140296708871672</title>
<path fill="none" stroke="#000000" d="M146.5,-166.3799C146.5,-158.1745 146.5,-148.7679 146.5,-139.8786"/>
<polygon fill="#000000" stroke="#000000" points="150.0001,-139.784 146.5,-129.784 143.0001,-139.784 150.0001,-139.784"/>
</g>
<!-- 140296709271792 -->
<g id="node3" class="node">
<title>140296709271792</title>
<polygon fill="none" stroke="#000000" points="41.5,-.5 41.5,-46.5 251.5,-46.5 251.5,-.5 41.5,-.5"/>
<text text-anchor="middle" x="92.5" y="-19.8" font-family="Times,serif" font-size="14.00" fill="#000000">dense_3: Dense</text>
<polyline fill="none" stroke="#000000" points="143.5,-.5 143.5,-46.5 "/>
<text text-anchor="middle" x="171" y="-31.3" font-family="Times,serif" font-size="14.00" fill="#000000">input:</text>
<polyline fill="none" stroke="#000000" points="143.5,-23.5 198.5,-23.5 "/>
<text text-anchor="middle" x="171" y="-8.3" font-family="Times,serif" font-size="14.00" fill="#000000">output:</text>
<polyline fill="none" stroke="#000000" points="198.5,-.5 198.5,-46.5 "/>
<text text-anchor="middle" x="225" y="-31.3" font-family="Times,serif" font-size="14.00" fill="#000000">(?, 10)</text>
<polyline fill="none" stroke="#000000" points="198.5,-23.5 251.5,-23.5 "/>
<text text-anchor="middle" x="225" y="-8.3" font-family="Times,serif" font-size="14.00" fill="#000000">(?, 1)</text>
</g>
<!-- 140296708871672&#45;&gt;140296709271792 -->
<g id="edge2" class="edge">
<title>140296708871672&#45;&gt;140296709271792</title>
<path fill="none" stroke="#000000" d="M146.5,-83.3799C146.5,-75.1745 146.5,-65.7679 146.5,-56.8786"/>
<polygon fill="#000000" stroke="#000000" points="150.0001,-56.784 146.5,-46.784 143.0001,-56.784 150.0001,-56.784"/>
</g>
</g>
</svg>
